<?xml version="1.0"?>
<svg xmlns="http://www.w3.org/2000/svg" xmlns:xlink="http://www.w3.org/1999/xlink" version="1.1" id="Capa_1" x="0px" y="0px" viewBox="0 0 511.996 511.996" style="enable-background:new 0 0 511.996 511.996;" xml:space="preserve" width="512px" height="512px" class=""><g><circle style="fill:#0063FF" cx="256" cy="264.58" r="187.73" data-original="#1081E0" class="active-path" data-old_color="#005BFF"/><path style="fill:#26C644" d="M334.771,94.18l-1.971-0.265c0,0,19.908,47.642,0,59.733l-20.574,8.226  c-12.143,4.855-20.54,16-22.076,28.979c-0.051,0.401-0.094,0.794-0.154,1.195c-1.835,13.321-19.823,16.521-26.743,4.992  l-8.474-14.123c-3.2-5.333-11.051-4.983-13.687,0.657c-6.682,14.268-16.521,37.76-18.765,56.602  c-0.529,4.403,0.282,8.841,2.261,12.809l9.839,19.678c2.807,5.615,7.091,10.308,12.407,13.662  c7.603,4.796,19.038,12.868,26.743,22.178c8.03,9.694,19.567,15.812,32.154,15.812l0,0c0.785,0,1.417,0.623,1.365,1.408  c-0.58,9.02-2.859,58.325,17.169,58.325c0,0,42.667,8.175,42.667-59.733l14.199-63.906c1.033-4.651,7.211-5.649,9.66-1.57  l8.849,14.754c5.325,8.875,17.152,11.187,25.438,4.983l18.654-13.995C443.733,189.045,399.095,123.961,334.771,94.18z" data-original="#61B872" class="" data-old_color="#27C645"/><path style="fill:#3D6F44" d="M136.533,325.288v-12.834c0-10.778-10.761-18.236-20.847-14.447l-40.977,15.369  c18.372,68.42,74.402,121.404,144.538,135.33l3.123-10.94c4.958-17.348,0.119-36.019-12.638-48.777l-5.171-5.171  c-5.478-5.478-11.955-9.865-19.081-12.919l-26.317-11.281C145.434,353.73,136.533,340.23,136.533,325.288z" data-original="#3D6F44" class=""/><path style="fill:#26C644" d="M68.54,254.513l26.112-10.163l26.752-10.701c8.499-3.396,12.877-12.834,9.975-21.521  c-2.074-6.212-0.452-13.065,4.173-17.69l18.048-18.039l6.545-6.545c6.741-6.741,10.522-15.872,10.522-25.404v-11.102  c0-11.102-3.925-21.649-10.752-30.054C107.742,134.449,71.945,190.18,68.54,254.513z" data-original="#61B872" class="" data-old_color="#27C645"/><g>
	<path style="fill:#333232" d="M256,460.849c-108.22,0-196.267-88.047-196.267-196.267S147.78,68.316,256,68.316   s196.267,88.047,196.267,196.267S364.22,460.849,256,460.849z M256,85.382c-98.807,0-179.2,80.384-179.2,179.2   s80.393,179.2,179.2,179.2c98.816,0,179.2-80.384,179.2-179.2S354.816,85.382,256,85.382z" data-original="#4D007E" class="" data-old_color="#353434"/>
	<path style="fill:#333232" d="M328.371,392.872c-2.176,0-3.857-0.171-4.813-0.299c-5.282-0.179-10.052-2.406-13.858-6.46   c-10.88-11.605-11.93-37.879-11.452-53.862c-11.913-1.92-23.006-8.354-31.241-18.313c-7.236-8.738-18.594-16.538-24.721-20.403   c-6.647-4.198-11.998-10.103-15.488-17.067l-9.839-19.678c-2.748-5.504-3.823-11.597-3.106-17.63   c2.321-19.447,11.887-42.931,19.507-59.204c2.56-5.461,7.876-9.037,13.892-9.344c5.973-0.367,11.725,2.722,14.839,7.919   l8.474,14.123c1.621,2.714,4.446,3.226,6.562,2.799c1.169-0.239,3.942-1.161,4.412-4.557l0.128-0.981   c1.92-16.205,12.416-29.961,27.392-35.951l19.78-7.91c8.926-6.502,1.946-34.825-3.917-48.836c-1.178-2.825-0.759-6.05,1.101-8.482   c1.852-2.432,4.864-3.703,7.902-3.268l1.971,0.265c0.853,0.111,1.681,0.358,2.466,0.717   c69.188,32.034,113.903,101.956,113.903,178.133c0,2.688-1.263,5.214-3.413,6.827l-18.654,13.995   c-5.879,4.403-13.389,6.127-20.591,4.71c-7.202-1.417-13.508-5.837-17.28-12.126l-4.642-7.731l-12.22,55.006   c-0.154,27.486-7.057,47.061-20.523,58.189C345.276,391.439,334.703,392.872,328.371,392.872z M248.201,188.533   c-5.871,12.689-15.309,35.183-17.399,52.642c-0.324,2.714,0.171,5.478,1.425,7.987l9.839,19.678   c2.091,4.181,5.316,7.731,9.327,10.266c8.533,5.385,20.454,13.918,28.757,23.962c6.699,8.081,16.026,12.715,25.591,12.715   c2.731,0,5.376,1.135,7.236,3.123c1.852,1.971,2.816,4.659,2.645,7.356c-1.468,22.699,1.22,42.505,6.537,48.179   c1.792,1.911,2.628,1.024,3.729,1.229c0.307,0.043,9.958,1.587,18.398-5.547c9.233-7.808,14.114-23.646,14.114-45.807   c0-0.623,0.068-1.246,0.205-1.852l14.199-63.906c1.237-5.547,5.658-9.719,11.264-10.633c5.632-0.913,11.128,1.647,14.046,6.519   l8.849,14.754c1.314,2.193,3.422,3.678,5.931,4.164c2.5,0.486,5.018-0.085,7.066-1.613l15.189-11.392   c-1.476-61.901-35.217-118.784-88.064-150.076c4.258,17.254,6.357,40.823-9.856,50.671c-0.401,0.239-0.828,0.452-1.254,0.623   l-20.574,8.226c-9.173,3.669-15.599,12.117-16.768,22.059l-0.179,1.348c-1.314,9.566-8.346,16.998-17.894,18.953   c-9.847,1.988-19.499-2.202-24.619-10.735L248.201,188.533z" data-original="#4D007E" class="" data-old_color="#353434"/>
	<path style="fill:#333232" d="M219.247,457.231c-0.546,0-1.109-0.051-1.673-0.162c-72.593-14.413-131.908-69.956-151.117-141.491   c-1.143-4.25,1.135-8.661,5.248-10.206l40.977-15.36c7.356-2.748,15.607-1.732,22.067,2.739c6.46,4.48,10.317,11.836,10.317,19.695   v12.843c0,11.546,6.852,21.939,17.459,26.487l26.317,11.281c8.158,3.499,15.479,8.448,21.751,14.729l5.171,5.163   c14.942,14.933,20.617,36.838,14.814,57.156l-3.123,10.94C226.389,454.765,222.993,457.231,219.247,457.231z M85.12,318.573   c18.731,59.221,67.857,105.242,128.128,120.047l0.922-3.209c4.105-14.362,0.085-29.841-10.47-40.397l-5.171-5.163   c-4.727-4.727-10.249-8.465-16.41-11.11l-26.317-11.281C138.914,360.224,128,343.669,128,325.288v-12.843   c0-2.295-1.084-4.361-2.97-5.666c-1.886-1.314-4.198-1.604-6.357-0.785L85.12,318.573z" data-original="#4D007E" class="" data-old_color="#353434"/>
	<path style="fill:#333232" d="M68.54,263.046c-1.775,0-3.524-0.546-5.001-1.621c-2.347-1.698-3.669-4.471-3.516-7.364   c3.456-65.34,39.168-124.442,95.522-158.089c3.644-2.176,8.329-1.348,10.999,1.946c8.158,10.052,12.655,22.639,12.655,35.439   v11.102c0,11.878-4.625,23.04-13.022,31.428l-24.593,24.593c-2.355,2.364-3.166,5.794-2.116,8.96   c4.318,12.954-2.227,27.068-14.908,32.145l-52.932,20.89C70.639,262.85,69.589,263.046,68.54,263.046z M157.449,114.916   c-43.75,28.834-72.542,75.025-79.172,126.643l39.953-15.838c4.292-1.715,6.519-6.502,5.052-10.897   c-3.115-9.335-0.725-19.456,6.229-26.419l24.593-24.593c5.18-5.171,8.03-12.041,8.03-19.362v-11.102   C162.133,126.94,160.503,120.591,157.449,114.916z" data-original="#4D007E" class="" data-old_color="#353434"/>
	<path style="fill:#333232" d="M230.409,18.421c-4.318,0-8.03-3.268-8.482-7.663c-0.478-4.685,2.935-8.883,7.62-9.361   c8.73-0.896,17.63-1.348,26.453-1.348c4.71,0,8.533,3.823,8.533,8.533s-3.823,8.533-8.533,8.533   c-8.252,0-16.563,0.427-24.713,1.254C230.997,18.404,230.699,18.421,230.409,18.421z" data-original="#4D007E" class="" data-old_color="#353434"/>
	<path style="fill:#333232" d="M263.27,511.947c-4.599,0-8.388-3.661-8.525-8.286c-0.137-4.71,3.575-8.644,8.286-8.772   c16.333-0.469,32.606-2.611,48.375-6.357c4.565-1.075,9.182,1.741,10.274,6.332c1.084,4.582-1.749,9.182-6.332,10.274   c-16.896,4.011-34.33,6.298-51.823,6.801C263.433,511.947,263.347,511.947,263.27,511.947z M212.89,508.311   c-0.495,0-0.99-0.043-1.485-0.128c-17.186-3.021-34.108-7.825-50.278-14.285c-4.378-1.749-6.511-6.716-4.762-11.085   c1.749-4.386,6.707-6.511,11.093-4.762c15.087,6.025,30.874,10.505,46.908,13.329c4.642,0.819,7.74,5.239,6.929,9.882   C220.561,505.393,216.96,508.311,212.89,508.311z M119.526,471.055c-1.613,0-3.251-0.461-4.702-1.417   c-14.507-9.609-28.1-20.762-40.405-33.135c-3.319-3.345-3.302-8.747,0.034-12.075c3.337-3.328,8.747-3.302,12.066,0.034   c11.486,11.554,24.175,21.965,37.726,30.933c3.925,2.603,5.001,7.902,2.398,11.827   C125.005,469.715,122.291,471.055,119.526,471.055z M48.683,399.75c-2.782,0-5.513-1.357-7.151-3.866   c-9.54-14.609-17.604-30.234-23.962-46.447c-1.724-4.395,0.444-9.344,4.83-11.059c4.386-1.724,9.335,0.444,11.059,4.83   c5.931,15.13,13.457,29.713,22.366,43.349c2.577,3.942,1.468,9.233-2.475,11.81C51.908,399.298,50.287,399.75,48.683,399.75z    M11.998,306.165c-4.087,0-7.697-2.944-8.405-7.108C1.212,284.943,0,270.47,0,256.049c0-3.055,0.051-6.093,0.162-9.122   c0.171-4.71,4.156-8.482,8.823-8.235c4.71,0.171,8.397,4.113,8.235,8.823c-0.102,2.842-0.154,5.683-0.154,8.533   c0,13.474,1.135,26.982,3.362,40.158c0.785,4.651-2.347,9.054-6.989,9.839C12.954,306.131,12.476,306.165,11.998,306.165z    M15.582,205.719c-0.666,0-1.348-0.077-2.031-0.239c-4.582-1.118-7.381-5.734-6.263-10.317c4.13-16.93,10.035-33.502,17.553-49.246   c2.031-4.25,7.125-6.05,11.375-4.028c4.258,2.031,6.059,7.117,4.028,11.375c-7.014,14.686-12.518,30.148-16.375,45.943   C22.912,203.1,19.422,205.719,15.582,205.719z M58.837,115.001c-1.801,0-3.61-0.563-5.154-1.741   c-3.755-2.85-4.48-8.209-1.63-11.955c10.539-13.867,22.545-26.718,35.678-38.187c3.558-3.106,8.943-2.731,12.041,0.819   c3.098,3.55,2.731,8.943-0.819,12.041C86.69,86.679,75.477,98.677,65.638,111.631C63.957,113.832,61.414,115.001,58.837,115.001z    M134.596,48.902c-2.978,0-5.871-1.562-7.441-4.335c-2.313-4.105-0.87-9.31,3.234-11.631c15.198-8.576,31.326-15.607,47.932-20.89   c4.489-1.417,9.293,1.058,10.718,5.547s-1.058,9.293-5.547,10.718c-15.488,4.924-30.541,11.486-44.715,19.49   C137.455,48.544,136.013,48.902,134.596,48.902z" data-original="#4D007E" class="" data-old_color="#353434"/>
	<path style="fill:#333232" d="M361.464,488.514c-3.2,0-6.263-1.809-7.723-4.898c-2.014-4.267-0.179-9.344,4.079-11.358   c7.424-3.507,14.746-7.433,21.76-11.682c4.028-2.449,9.276-1.152,11.725,2.876c2.441,4.028,1.152,9.276-2.876,11.725   c-7.518,4.557-15.36,8.764-23.322,12.518C363.921,488.249,362.684,488.514,361.464,488.514z" data-original="#4D007E" class="" data-old_color="#353434"/>
	<path style="fill:#333232" d="M426.667,477.916c-4.71,0-8.533-3.823-8.533-8.533v-25.6c0-2.637,1.22-5.12,3.294-6.741l76.8-59.733   c3.703-2.893,9.071-2.227,11.972,1.502c2.893,3.721,2.219,9.079-1.502,11.972L435.2,447.955v21.427   C435.2,474.093,431.377,477.916,426.667,477.916z" data-original="#4D007E" class="" data-old_color="#353434"/>
	<path style="fill:#333232" d="M426.667,452.316c-0.887,0-1.801-0.145-2.697-0.444l-25.6-8.533   c-4.471-1.493-6.886-6.323-5.393-10.795c1.485-4.463,6.306-6.904,10.795-5.393l25.6,8.533c4.471,1.493,6.886,6.323,5.393,10.795   C433.57,450.054,430.242,452.316,426.667,452.316z" data-original="#4D007E" class="" data-old_color="#353434"/>
	<path style="fill:#333232" d="M486.4,460.849c-3.388,0-6.588-2.031-7.927-5.367l-16-40.004l-40.201-24.124   c-4.045-2.423-5.35-7.663-2.927-11.708s7.663-5.35,11.708-2.927l42.667,25.6c1.596,0.956,2.842,2.415,3.533,4.147l17.067,42.667   c1.749,4.378-0.375,9.344-4.753,11.093C488.533,460.653,487.458,460.849,486.4,460.849z" data-original="#4D007E" class="" data-old_color="#353434"/>
</g></g> </svg>
